<svg xmlns="http://www.w3.org/2000/svg" width="45" height="45" viewBox="0 0 45 45">
  <g id="Group_15" data-name="Group 15" transform="translate(-20 -164)">
    <g id="Group_130" data-name="Group 130">
      <g id="Ellipse_3" data-name="Ellipse 3" transform="translate(20 164)" fill="none" stroke="#fff" stroke-width="1.5">
        <circle cx="22.5" cy="22.5" r="22.5" stroke="none"/>
        <circle cx="22.5" cy="22.5" r="21.75" fill="none"/>
      </g>
      <g id="Page-1" transform="translate(32 176)">
        <g id="Facebook" transform="translate(1 1)">
          <path id="Stroke-1" d="M28.652,25.963V18.272h2.484l.37-3H28.652V13.361c0-.867.231-1.458,1.429-1.458l1.527,0V9.222a19.317,19.317,0,0,0-2.225-.12c-2.2,0-3.708,1.4-3.708,3.963v2.209H23.182v3h2.492v7.691Z" transform="translate(-15.188 -5.963)" fill="none" stroke="#fff" stroke-width="1.5" fill-rule="evenodd"/>
          <path id="Stroke-99" d="M18.621,20H1.379A1.379,1.379,0,0,1,0,18.621V1.379A1.379,1.379,0,0,1,1.379,0H18.621A1.379,1.379,0,0,1,20,1.379V18.621A1.379,1.379,0,0,1,18.621,20Z" fill="none" stroke="#fff" stroke-linejoin="round" stroke-width="1.5" fill-rule="evenodd"/>
        </g>
      </g>
    </g>
  </g>
</svg>
